{"title":"The Huntsman Winters War EX CUT- 2016 - Dual Audio (English - Hi","uid":15437898,"size":790280726,"categoryP":"video","categoryS":"movies","magnet":"?xt=urn:btih:d5af6523e663365364d966653c1eeac692b38f08&amp;dn=The+Huntsman+Winters+War+EX+CUT-+2016+-+Dual+Audio+%28English+-+Hi&amp;tr=udp%3A%2F%2Ftracker.leechers-paradise.org%3A6969&amp;tr=udp%3A%2F%2Fzer0day.ch%3A1337&amp;tr=udp%3A%2F%2Fopen.demonii.com%3A1337&amp;tr=udp%3A%2F%2Ftracker.coppersurfer.tk%3A6969&amp;tr=udp%3A%2F%2Fexodus.desync.com%3A6969","seeders":12,"leechers":4,"uploader":"makintos13","files":1,"time":1469786150,"description":"https://imgmak.com/image/aTO\r\n \nhttps://imgmak.com/image/aT0\r\n \nhttps://imgmak.com/image/aTE\r\n\r\nFormat : Matroska\r\nFormat version : Version 4 / Version 2\r\nFile size : 754 MiB\r\nDuration : 2h 0mn\r\nOverall bit rate : 877 Kbps\r\nEncoded date : UTC 2016-07-29 05:26:10\r\nWriting application : mkvmerge v9.1.0 ('Little Earthquakes') 64bit\r\nWriting library : libebml v1.3.3 + libmatroska v1.4.4 / Lavf55.12.0\r\n\r\nVideo\r\nID : 3\r\nFormat : AVC\r\nFormat/Info : Advanced Video Codec\r\nFormat profile :   \r\nFormat settings, CABAC : Yes\r\nFormat settings, ReFrames : 4 frames\r\nCodec ID : V_MPEG4/ISO/AVC\r\nDuration : 2h 0mn\r\nBit rate : 746 Kbps\r\nWidth : 720 pixels\r\nHeight : 304 pixels\r\nDisplay aspect ratio : 2.35:1\r\nFrame rate mode : Constant\r\nFrame rate : 23.976 (24000/1001) fps\r\nColor space : YUV\r\nChroma subsampling : 4:2:0\r\nBit depth : 8 bits\r\nScan type : Progressive\r\nBits/(Pixel*Frame) : 0.142\r\nStream size : 641 MiB (85%)\r\nWriting library : x264 core 148 r2638 7599210\r\nDefault : Yes\r\nForced : No\r\n\r\nAudio #1\r\nID : 1\r\nFormat : AAC\r\nFormat/Info : Advanced Audio Codec\r\nFormat profile : LC\r\nCodec ID : A_AAC\r\nDuration : 2h 0mn\r\nBit rate : 64.1 Kbps\r\nChannel(s) : 2 channels\r\nChannel positions : Front: L R\r\nSampling rate : 48.0 KHz\r\nFrame rate : 46.875 fps (1024 spf)\r\nCompression mode : Lossy\r\nDelay relative to video : 62ms\r\nStream size : 55.1 MiB (7%)\r\nTitle : Stereo\r\nLanguage : Hindi\r\nDefault : Yes\r\nForced : No\r\n\r\nAudio #2\r\nID : 2\r\nFormat : AAC\r\nFormat/Info : Advanced Audio Codec\r\nFormat profile : LC\r\nCodec ID : A_AAC\r\nDuration : 2h 0mn\r\nBit rate : 64.0 Kbps\r\nChannel(s) : 2 channels\r\nChannel positions : Front: L R\r\nSampling rate : 48.0 KHz\r\nFrame rate : 46.875 fps (1024 spf)\r\nCompression mode : Lossy\r\nDelay relative to video : 62ms\r\nStream size : 55.0 MiB (7%)\r\nTitle : Stereo\r\nLanguage : English\r\nDefault : No\r\nForced : No","torrent":{"xt":"urn:btih:d5af6523e663365364d966653c1eeac692b38f08","amp;dn":"The+Huntsman+Winters+War+EX+CUT-+2016+-+Dual+Audio+%28English+-+Hi","amp;tr":["udp%3A%2F%2Ftracker.leechers-paradise.org%3A6969","udp%3A%2F%2Fzer0day.ch%3A1337","udp%3A%2F%2Fopen.demonii.com%3A1337","udp%3A%2F%2Ftracker.coppersurfer.tk%3A6969","udp%3A%2F%2Fexodus.desync.com%3A6969"],"infoHash":"d5af6523e663365364d966653c1eeac692b38f08","infoHashBuffer":{"type":"Buffer","data":[213,175,101,35,230,99,54,83,100,217,102,101,60,30,234,198,146,179,143,8]},"announce":[],"urlList":[]}}